<?xml version="1.0" standalone="no"?>
<!DOCTYPE svg PUBLIC "-//W3C//DTD SVG 20010904//EN"
 "http://www.w3.org/TR/2001/REC-SVG-20010904/DTD/svg10.dtd">
<svg version="1.0" xmlns="http://www.w3.org/2000/svg"
 width="266.000000pt" height="266.000000pt" viewBox="0 0 266.000000 266.000000"
 preserveAspectRatio="xMidYMid meet">

<g transform="translate(0.000000,266.000000) scale(0.100000,-0.100000)"
fill="#000000" stroke="none">
<path d="M1432 2247 c-17 -12 -38 -41 -48 -65 -9 -24 -18 -41 -21 -38 -2 2 1
14 7 26 24 45 5 48 -43 5 -45 -39 -50 -49 -81 -153 -29 -95 -32 -117 -25 -154
9 -39 5 -55 -31 -153 -23 -61 -52 -129 -66 -152 -17 -30 -20 -43 -11 -46 8 -4
6 -6 -4 -6 -42 -2 -98 -108 -99 -187 0 -150 178 -210 298 -101 28 26 29 85 2
146 -26 57 -1 37 29 -25 l24 -46 24 31 c14 18 72 64 130 102 81 55 116 72 158
79 34 5 98 32 174 72 116 61 121 65 136 107 8 25 15 46 15 48 0 2 -21 -8 -47
-23 -39 -21 -43 -22 -23 -5 14 12 36 28 50 37 20 12 25 24 25 55 0 21 -1 39
-2 39 -1 0 -32 -21 -68 -46 -36 -25 -65 -43 -65 -41 0 3 31 29 70 58 l69 53
-29 19 c-21 13 -31 30 -37 60 l-9 42 -54 -50 c-59 -54 -51 -37 14 33 l40 42
-31 12 c-17 6 -36 22 -42 35 -12 26 -26 30 -38 9 -4 -7 -32 -40 -62 -72 -64
-69 -59 -57 16 43 30 39 52 77 48 82 -3 6 -22 11 -41 11 -28 0 -38 6 -53 32
l-20 31 -28 -48 c-49 -83 -66 -93 -24 -13 23 42 41 80 41 83 0 3 -15 5 -32 4
-18 -1 -40 1 -48 5 -11 4 -25 -13 -53 -65 -50 -91 -59 -83 -13 10 20 39 36 75
36 81 0 33 -113 -20 -130 -60 -19 -47 -22 -29 -4 24 9 26 14 49 12 51 -2 3
-18 -6 -36 -18z m46 -334 c-43 -112 -52 -128 -68 -128 -24 0 -22 30 3 61 13
16 39 55 57 87 17 31 33 57 35 57 2 0 -10 -35 -27 -77z m92 -38 c-22 -36 -40
-72 -40 -80 0 -18 -21 -65 -29 -65 -3 0 -15 7 -25 15 -19 14 -18 15 5 43 13
16 46 57 73 91 27 33 51 61 52 61 2 0 -14 -29 -36 -65z m-208 -5 c-18 -55 -51
-87 -38 -37 6 24 48 97 53 93 2 -2 -5 -27 -15 -56z m-81 -43 c-18 -18 -24 0
-10 33 l14 31 3 -27 c2 -14 -1 -31 -7 -37z m367 -51 c-24 -29 -53 -66 -65 -82
-20 -28 -22 -28 -40 -11 -17 18 -17 19 10 43 15 13 34 24 41 24 6 0 30 18 51
40 21 22 41 40 43 40 2 0 -16 -24 -40 -54z m-378 21 c0 -17 -34 -97 -41 -97
-12 0 -11 15 3 61 6 22 17 39 25 39 7 0 13 -1 13 -3z m60 -12 c0 -15 -52 -105
-60 -105 -14 0 -13 8 7 63 12 32 23 47 35 47 10 0 18 -2 18 -5z m69 -24 c12
-8 1 -31 -54 -109 -1 -1 -9 0 -18 4 -14 5 -13 13 11 60 26 54 35 61 61 45z
m306 -73 c-84 -91 -104 -106 -116 -87 -5 8 -9 19 -9 26 0 15 39 43 60 43 8 0
40 20 70 45 30 24 57 44 58 45 2 0 -26 -32 -63 -72z m-243 35 c24 -22 23 -28
-14 -73 -35 -42 -47 -47 -65 -29 -8 8 -2 26 21 65 17 29 33 54 35 54 3 0 13
-7 23 -17z m38 -123 c-25 -22 -49 -38 -54 -37 -20 6 -15 25 21 71 l36 47 21
-21 21 -21 -45 -39z m-280 66 c0 -12 -41 -98 -45 -94 -8 7 26 98 36 98 5 0 9
-2 9 -4z m40 -18 c-1 -13 -50 -99 -50 -87 0 18 33 99 41 99 5 0 9 -6 9 -12z
m60 -31 c-1 -17 -59 -85 -60 -69 0 23 40 93 50 87 6 -4 10 -12 10 -18z m385
-22 c-56 -50 -85 -69 -92 -61 -7 7 26 46 39 46 5 0 26 11 46 25 51 35 54 31 7
-10z m-135 -4 c14 -28 15 -27 -35 -61 -42 -29 -65 -32 -65 -9 0 12 70 89 81
89 4 0 13 -9 19 -19z m-195 -1 c9 -14 -42 -80 -61 -80 -19 0 -18 4 11 50 26
41 39 48 50 30z m45 -54 c0 -15 -59 -70 -67 -62 -7 6 47 76 58 76 5 0 9 -6 9
-14z m168 -33 c-21 -26 -79 -56 -89 -46 -7 7 6 22 38 46 32 24 50 32 55 24 4
-6 2 -17 -4 -24z m-135 -17 c4 -9 -9 -24 -34 -40 -47 -32 -50 -23 -7 21 37 38
34 37 41 19z m17 -55 c0 -13 -55 -51 -72 -51 -7 1 3 14 22 30 35 31 50 37 50
21z m-418 -131 c12 -40 40 -75 83 -101 17 -11 23 -19 15 -19 -25 0 -89 48
-105 80 -8 16 -14 51 -14 77 1 26 4 37 6 23 2 -14 9 -41 15 -60z"/>
<path d="M1628 1386 c31 -24 28 -50 -13 -95 -67 -74 -289 -170 -482 -207 -108
-21 -268 -24 -303 -5 -50 28 -52 56 -7 108 l32 38 -40 -30 c-84 -62 -97 -102
-43 -135 140 -85 715 50 887 209 62 57 52 109 -24 126 -30 7 -30 7 -7 -9z"/>
<path d="M90 880 c-23 -23 -24 -29 -10 -64 9 -24 13 -25 102 -28 l93 -3 3 -28
4 -29 -101 4 c-56 1 -101 0 -101 -4 0 -17 44 -28 113 -28 82 0 107 15 107 61
0 41 -18 49 -105 49 -88 0 -109 8 -103 36 3 17 14 19 105 19 96 0 101 1 86 18
-25 27 -165 25 -193 -3z"/>
<path d="M360 800 c0 -60 4 -100 10 -100 6 0 10 28 10 65 0 36 4 65 9 65 5 0
30 -30 56 -66 l47 -66 47 66 c25 36 49 66 54 66 4 0 7 -29 7 -65 0 -37 4 -65
10 -65 6 0 10 40 10 100 0 55 -2 100 -3 100 -2 0 -30 -36 -61 -80 -32 -44 -62
-77 -67 -74 -5 3 -34 39 -64 80 -30 41 -57 74 -60 74 -3 0 -5 -45 -5 -100z"/>
<path d="M737 800 c-37 -55 -62 -100 -56 -100 6 0 20 11 31 25 18 23 26 25 97
25 73 0 78 -2 91 -25 7 -14 19 -25 27 -25 11 0 -83 155 -117 193 -3 4 -37 -38
-73 -93z m98 23 c14 -21 25 -41 25 -45 0 -5 -25 -8 -55 -8 -30 0 -55 3 -55 8
0 9 49 82 55 82 2 0 16 -17 30 -37z"/>
<path d="M1002 884 c-24 -17 -29 -51 -9 -77 9 -13 32 -17 102 -19 89 -3 90 -3
90 -28 l0 -25 -103 0 c-100 0 -102 -1 -81 -17 32 -27 162 -25 189 2 23 23 26
49 8 73 -10 13 -33 17 -103 19 -89 3 -90 3 -90 28 0 25 0 25 98 25 53 0 97 3
97 7 0 30 -159 40 -198 12z"/>
<path d="M1270 800 c0 -60 4 -100 10 -100 6 0 10 20 10 45 l0 45 90 0 90 0 0
-45 c0 -25 5 -45 10 -45 6 0 10 40 10 100 0 60 -4 100 -10 100 -5 0 -10 -20
-10 -45 l0 -45 -90 0 -90 0 0 45 c0 25 -4 45 -10 45 -6 0 -10 -40 -10 -100z"/>
<path d="M1566 884 c-19 -18 -21 -65 -4 -82 8 -8 45 -12 99 -12 80 0 88 -2 94
-21 11 -35 -7 -41 -109 -37 -53 1 -96 2 -96 1 0 -1 7 -9 16 -17 18 -19 153
-23 185 -6 22 12 27 71 6 88 -7 6 -51 12 -97 14 l-85 3 -3 28 -4 29 101 -4
c56 -1 101 0 101 4 0 30 -176 41 -204 12z"/>
<path d="M1841 798 c1 -67 4 -89 8 -63 l6 40 89 3 c50 2 96 8 103 14 18 15 16
73 -3 92 -12 12 -37 16 -110 16 l-94 0 1 -102z m199 37 l0 -36 -92 3 c-80 3
-93 5 -96 21 -8 42 3 47 98 47 l90 0 0 -35z"/>
<path d="M2150 888 c-23 -13 -25 -19 -25 -88 0 -69 2 -75 25 -88 39 -20 158
-12 176 13 18 25 18 125 0 150 -18 25 -137 33 -176 13z m165 -88 l0 -65 -80
-3 c-90 -3 -105 6 -105 66 0 66 11 73 103 70 l82 -3 0 -65z"/>
<path d="M2380 885 c0 -11 12 -15 45 -15 l45 0 0 -85 c0 -50 4 -85 10 -85 6 0
10 35 10 85 l0 85 45 0 c33 0 45 4 45 15 0 12 -18 15 -100 15 -82 0 -100 -3
-100 -15z"/>
<path d="M1398 539 c-21 -12 -24 -69 -6 -87 18 -18 46 -14 58 7 15 29 12 56
-8 74 -21 20 -21 20 -44 6z m45 -31 c8 -28 -10 -60 -31 -56 -18 3 -28 39 -18
64 8 22 43 17 49 -8z"/>
<path d="M1796 534 c-19 -18 -21 -65 -4 -82 16 -16 43 -15 58 3 9 10 9 15 1
15 -6 0 -11 -4 -11 -10 0 -15 -26 -12 -40 5 -17 21 -4 65 19 65 11 0 21 -6 24
-12 2 -7 7 -10 11 -7 8 7 -20 39 -34 39 -5 0 -16 -7 -24 -16z"/>
<path d="M390 490 l0 -51 33 3 c31 3 32 5 32 48 0 43 -1 45 -33 48 l-32 3 0
-51z m50 25 c0 -8 -9 -15 -20 -15 -11 0 -20 7 -20 15 0 8 9 15 20 15 11 0 20
-7 20 -15z m8 -42 c5 -17 -26 -29 -40 -15 -6 6 -7 15 -3 22 9 14 37 9 43 -7z"/>
<path d="M550 515 c-11 -30 -23 -86 -14 -67 3 6 16 12 29 12 13 0 25 -6 28
-12 2 -7 6 -11 9 -8 8 8 -22 100 -33 100 -5 0 -14 -11 -19 -25z m26 -30 c-8
-23 -25 -9 -19 16 4 13 9 17 16 10 5 -5 7 -17 3 -26z"/>
<path d="M680 490 c0 -46 2 -50 23 -50 29 0 47 18 47 46 0 40 -11 54 -41 54
-28 0 -29 -2 -29 -50z m58 12 c4 -26 -13 -52 -34 -52 -10 0 -14 13 -14 41 0
36 2 40 23 37 14 -2 23 -11 25 -26z"/>
<path d="M831 488 c2 -52 2 -53 9 -13 l6 40 9 -30 c4 -16 10 -34 13 -39 6 -11
21 21 21 44 0 9 -4 7 -8 -5 -8 -18 -10 -16 -18 14 -15 57 -33 51 -32 -11z"/>
<path d="M894 509 c3 -17 6 -40 6 -50 0 -11 5 -19 10 -19 6 0 10 23 10 50 0
39 -3 50 -16 50 -13 0 -15 -7 -10 -31z"/>
<path d="M1003 490 c0 -30 2 -43 4 -27 2 15 2 39 0 55 -2 15 -4 2 -4 -28z"/>
<path d="M1091 488 c2 -52 2 -52 8 -13 l6 40 23 -37 c13 -21 26 -38 28 -38 2
0 3 24 3 53 -1 46 -2 48 -8 17 l-6 -35 -20 33 c-11 17 -23 32 -27 32 -4 0 -7
-24 -7 -52z"/>
<path d="M1248 533 c7 -3 12 -23 12 -49 0 -24 5 -44 10 -44 6 0 10 20 10 44 0
26 5 46 13 49 6 3 -4 5 -23 5 -19 0 -29 -2 -22 -5z"/>
<path d="M1541 488 c2 -52 2 -52 8 -13 l6 40 18 -32 c28 -52 37 -49 36 9 -2
48 -2 50 -8 18 l-7 -35 -20 32 c-10 18 -22 33 -26 33 -5 0 -7 -24 -7 -52z"/>
<path d="M1942 493 c-2 -52 -1 -53 26 -52 22 1 23 2 5 6 -18 4 -23 12 -26 51
l-3 47 -2 -52z"/>
<path d="M2074 495 c1 -41 5 -50 20 -53 26 -5 46 24 46 65 0 48 -18 40 -22 -9
-4 -61 -31 -59 -39 2 l-7 45 2 -50z"/>
<path d="M2220 489 c0 -49 1 -50 28 -47 25 3 27 7 29 51 2 46 2 47 -27 47 -29
0 -30 -1 -30 -51z m48 29 c-7 -19 -38 -22 -38 -4 0 10 9 16 21 16 12 0 19 -5
17 -12z m-3 -48 c0 -8 -8 -16 -17 -18 -13 -2 -18 3 -18 18 0 15 5 20 18 18 9
-2 17 -10 17 -18z"/>
</g>
</svg>
